<?xml version="1.0" encoding="UTF-8"?><!DOCTYPE svg PUBLIC "-//W3C//DTD SVG 1.1//EN" "http://www.w3.org/Graphics/SVG/1.1/DTD/svg11.dtd"><svg xmlns="http://www.w3.org/2000/svg" xmlns:xlink="http://www.w3.org/1999/xlink"><symbol id="icon-close" viewBox="0 0 365.717 365"><g fill="#f44336"><path d="M356.34 296.348L69.727 9.734c-12.5-12.5-32.766-12.5-45.247 0L9.375 24.816c-12.5 12.504-12.5 32.77 0 45.25L295.988 356.68c12.504 12.5 32.77 12.5 45.25 0l15.082-15.082c12.524-12.48 12.524-32.75.02-45.25zm0 0"/><path d="M295.988 9.734L9.375 296.348c-12.5 12.5-12.5 32.77 0 45.25l15.082 15.082c12.504 12.5 32.77 12.5 45.25 0L356.34 70.086c12.504-12.5 12.504-32.766 0-45.246L341.258 9.758c-12.5-12.524-32.766-12.524-45.27-.024zm0 0"/></g></symbol><symbol id="icon-send" viewBox="0 0 367.941 367.941"><path fill="#cce4ff" d="M360.002 7.92l-112 352-72.4-167.6z"/><g fill="#007aff"><path d="M5.138 135.392l164.456 63.192 71.064 164.512a8.01 8.01 0 007.344 4.824c.136 0 .264 0 .4-.008a8.004 8.004 0 007.224-5.56l112-352c.12-.368.096-.744.16-1.112s.144-.72.152-1.104c.024-.784-.096-1.536-.296-2.28-.048-.168-.008-.344-.064-.512-.008-.032-.04-.056-.048-.088a8.06 8.06 0 00-1.464-2.52c-.208-.248-.48-.408-.712-.624-.384-.352-.72-.744-1.184-1.024-.112-.064-.24-.08-.352-.136-.336-.184-.688-.28-1.048-.416-.56-.208-1.112-.384-1.696-.464-.368-.048-.728-.056-1.112-.048a7.874 7.874 0 00-1.88.248c-.216.056-.432.008-.648.08l-352 120a7.984 7.984 0 00-5.432 7.416 7.997 7.997 0 005.136 7.624zm241.72 201.72l-61.76-142.976L342.402 36.824l-95.544 300.288zm83.16-310.52L173.626 182.984 31.482 128.368 330.018 26.592z"/><path d="M8.002 367.92a7.978 7.978 0 005.656-2.344l112-112a7.991 7.991 0 000-11.312 7.991 7.991 0 00-11.312 0l-112 112a7.991 7.991 0 000 11.312 7.978 7.978 0 005.656 2.344zm138.344-69.656l-56 56a7.991 7.991 0 000 11.312c1.56 1.56 3.608 2.344 5.656 2.344s4.096-.784 5.656-2.344l56-56c3.128-3.128 3.128-8.184 0-11.312s-8.184-3.128-11.312 0zM8.002 279.92a7.978 7.978 0 005.656-2.344l56-56c3.128-3.128 3.128-8.184 0-11.312s-8.184-3.128-11.312 0l-56 56a7.991 7.991 0 000 11.312 7.978 7.978 0 005.656 2.344z"/></g></symbol></svg>